<svg width="100" height="23" viewBox="0 0 100 23" fill="none" xmlns="http://www.w3.org/2000/svg">
<path d="M6.065 19.9972V11.8012H8.83L9.241 8.59215H6.065V6.54815C6.065 5.62215 6.323 4.98815 7.652 4.98815H9.336V2.12715C8.517 2.03915 7.693 1.99715 6.869 2.00015C4.425 2.00015 2.747 3.49215 2.747 6.23115V8.58615H0V11.7951H2.753V19.9972H6.065Z" fill="#D9D9D9"/>
<path fill-rule="evenodd" clip-rule="evenodd" d="M48.168 2H39.168C36.6932 2 34.668 4.02432 34.668 6.5V15.5C34.668 17.9748 36.6932 20 39.168 20H48.168C50.6427 20 52.668 17.9748 52.668 15.5V6.5C52.668 4.02432 50.6427 2 48.168 2ZM43.668 14.7499C41.5966 14.7499 39.9179 13.0704 39.9179 11C39.9179 8.92865 41.5966 7.24993 43.668 7.24993C45.7384 7.24993 47.418 8.92865 47.418 11C47.418 13.0704 45.7384 14.7499 43.668 14.7499ZM47.418 6.12492C47.418 6.74615 47.9211 7.24992 48.543 7.24992C49.1649 7.24992 49.668 6.74615 49.668 6.12492C49.668 5.5037 49.1649 4.99992 48.543 4.99992C47.9211 4.99992 47.418 5.5037 47.418 6.12492Z" fill="#D9D9D9"/>
<path d="M89.0009 20.1663C83.9383 20.1663 79.8342 16.0622 79.8342 10.9997C79.8342 5.93706 83.9383 1.83301 89.0009 1.83301C94.0635 1.83301 98.1676 5.93706 98.1676 10.9997C98.1676 16.0622 94.0635 20.1663 89.0009 20.1663ZM86.1502 12.0729L86.1618 12.0656C86.6932 13.82 86.9589 14.6972 86.9589 14.6972C87.0618 14.9819 87.2033 15.0326 87.375 15.0094C87.5466 14.9862 87.6377 14.8933 87.7498 14.7852C87.7498 14.7852 88.113 14.4346 88.8396 13.7334L91.1779 15.4637C91.604 15.6991 91.9116 15.5776 92.0174 15.0676L93.537 7.89805C93.7048 7.23073 93.4105 6.96308 92.8931 7.17492L83.9711 10.6212C83.3625 10.8658 83.3654 11.2064 83.8603 11.3582L86.1502 12.0729Z" fill="#D9D9D9"/>
</svg>
